<svg xmlns="http://www.w3.org/2000/svg" id="Layer_2" data-name="Layer 2" viewBox="0 0 787.76 375.96"><defs><style>      .cls-1 {        fill: #e03e31;      }      .cls-2 {        fill: #1b5934;      }      .cls-3 {        fill: none;        stroke: #f79d23;        stroke-miterlimit: 10;      }      .cls-4 {        fill: #f79d23;      }    </style></defs><g id="Layer_1-2" data-name="Layer 1"><g><g><path class="cls-1" d="M327.29,84.57c-15.54,25.94-46.71,38.13-75.67,29.42-27.77-8.34-50.38-9.74-66.71-8.82-9.88.55-12.88,13.68-4.24,18.47,17.62,9.76,32.36,19.4,44.43,28.19,26.24,19.13,33.01,55.38,15.51,82.72l-64.72,103.73-36.87-62.49c-12.08-20.47-2.77-46.86,19.46-55.27,4.3-1.63,8.35-3.23,11.84-4.73,20.89-8.98,18.35-39.37-3.74-44.79-11.56-2.83-42.79-4.05-54.09-5.54-28.34-3.71-53.4-20.21-67.87-44.86h0c-11.22-19.13-3.52-43.17,16.06-53.58,86.32-45.85,188.63-18.72,239.09.4,28.2,10.68,27.53,17.13,27.53,17.13Z"></path><path class="cls-4" d="M16.35,56.13c4.54-2.52,9.14-4.92,13.81-7.18,2.38-1.15,4.77-2.27,7.18-3.36,1.22-.55,2.44-1.09,3.66-1.62.57-.25,1.15-.49,1.72-.74.46-.2,1.52-.62-.59.25.33-.14.66-.28.99-.42,10.26-4.27,20.76-7.97,31.41-11.14,11.03-3.28,22.23-5.99,33.53-8.16,5.92-1.14,11.86-2.13,17.83-2.97.34-.05,2.64-.36,1.22-.17-1.26.17-.21.03.04,0,.4-.05.79-.1,1.19-.15,1.59-.2,3.19-.4,4.79-.58,3.02-.35,6.04-.66,9.06-.93,24.55-2.23,49.34-2.13,73.88.31,3.08.31,6.16.65,9.23,1.04.69.09,1.38.17,2.07.26.39.05.79.11,1.18.16.02,0-1.83-.25-.83-.11,1.56.22,3.13.44,4.69.68,5.79.87,11.56,1.88,17.29,3.03,11.14,2.23,22.18,4.99,33.05,8.31,5.35,1.64,10.66,3.41,15.92,5.32,2.54.92,5.08,1.88,7.59,2.87,1.17.46,2.33.92,3.49,1.4.58.24,1.15.47,1.73.71.33.14.66.27.98.41,1.01.42-2.06-.88-.35-.15,9.54,4.09,18.88,8.64,27.93,13.75,2.19,1.24,4.36,2.51,6.52,3.81,3.89,2.35,9.7.99,11.86-3.11,2.22-4.2,1.04-9.36-3.11-11.86-18.77-11.33-39-20.3-59.78-27.25-22.72-7.6-46.18-12.54-69.94-15.52S175.68-.79,150.74.92c-24.59,1.68-49.12,5.58-72.92,12.03-21.89,5.94-43.29,14.07-63.42,24.54-2.29,1.19-4.56,2.41-6.81,3.67-3.97,2.21-5.61,7.99-3.11,11.86,2.59,4.02,7.62,5.47,11.86,3.11h0Z"></path><path class="cls-2" d="M349.63,75c-1.57,2.66-3.13,5.33-4.7,7.99-4.22,7.18-8.45,14.37-12.67,21.55-6.29,10.69-12.58,21.39-18.86,32.08-7.65,13-15.29,26.01-22.94,39.01-8.37,14.24-16.75,28.48-25.12,42.73-8.45,14.38-16.91,28.75-25.36,43.13-7.88,13.41-15.77,26.81-23.65,40.22-6.68,11.36-13.37,22.73-20.05,34.09-4.77,8.12-9.55,16.23-14.32,24.35-2.27,3.85-4.77,7.65-6.83,11.62-.09.17-.19.33-.29.49h4.28c-1.56-2.66-3.11-5.32-4.67-7.98-4.24-7.24-8.48-14.48-12.71-21.72-6.27-10.71-12.53-21.41-18.8-32.12-7.62-13.01-15.24-26.03-22.85-39.04-8.37-14.3-16.74-28.6-25.12-42.91-8.42-14.39-16.84-28.77-25.27-43.16-7.88-13.46-15.76-26.93-23.64-40.39-6.66-11.38-13.32-22.75-19.98-34.13-4.79-8.18-9.57-16.36-14.36-24.54-2.26-3.86-4.46-7.78-6.79-11.6-.1-.16-.19-.33-.29-.49-1.61-2.75-5.89-.26-4.28,2.5,1.56,2.66,3.11,5.32,4.67,7.98,4.24,7.24,8.48,14.48,12.71,21.72,6.27,10.71,12.53,21.41,18.8,32.12,7.62,13.01,15.24,26.03,22.85,39.04,8.37,14.3,16.74,28.6,25.12,42.91,8.42,14.39,16.84,28.77,25.27,43.16,7.88,13.46,15.76,26.93,23.64,40.39,6.66,11.38,13.32,22.75,19.98,34.13,4.79,8.18,9.57,16.36,14.36,24.54,2.26,3.86,4.46,7.78,6.79,11.6.1.16.19.33.29.49.94,1.61,3.34,1.6,4.28,0,1.57-2.66,3.13-5.33,4.7-7.99,4.22-7.18,8.45-14.37,12.67-21.55,6.29-10.69,12.58-21.39,18.86-32.08,7.65-13,15.29-26.01,22.94-39.01,8.37-14.24,16.75-28.48,25.12-42.73,8.45-14.38,16.91-28.75,25.36-43.13,7.88-13.41,15.77-26.81,23.65-40.22,6.68-11.36,13.37-22.73,20.05-34.09,4.77-8.12,9.55-16.23,14.32-24.35,2.28-3.87,4.63-7.7,6.83-11.62.09-.17.19-.33.29-.49,1.62-2.75-2.66-5.25-4.28-2.5h0Z"></path></g><g><g><path class="cls-2" d="M456.87,79.7c0-6,1.45-10.61,4.35-13.82,2.9-3.21,7.25-4.82,13.04-4.82s10.15,1.61,13.04,4.82c2.9,3.21,4.35,7.82,4.35,13.82v2.33h-11.17v-3.07c0-2.68-.52-4.57-1.56-5.67-1.04-1.09-2.49-1.64-4.35-1.64s-3.31.55-4.35,1.64c-1.04,1.1-1.56,2.98-1.56,5.67,0,2.54.57,4.78,1.72,6.72,1.14,1.94,2.58,3.78,4.29,5.51,1.72,1.73,3.56,3.46,5.53,5.19,1.97,1.73,3.81,3.62,5.53,5.67,1.72,2.05,3.15,4.38,4.29,6.99,1.14,2.61,1.72,5.68,1.72,9.21,0,6-1.49,10.61-4.46,13.82-2.97,3.21-7.35,4.82-13.15,4.82s-10.18-1.6-13.15-4.82c-2.97-3.21-4.46-7.82-4.46-13.82v-4.55h11.17v5.29c0,2.68.55,4.55,1.67,5.61,1.11,1.06,2.59,1.59,4.46,1.59s3.34-.53,4.46-1.59c1.11-1.06,1.66-2.93,1.66-5.61,0-2.54-.57-4.78-1.72-6.72-1.14-1.94-2.58-3.78-4.29-5.51-1.72-1.73-3.56-3.46-5.53-5.19-1.97-1.73-3.81-3.62-5.53-5.67-1.72-2.05-3.15-4.38-4.29-6.99-1.15-2.61-1.72-5.68-1.72-9.21Z"></path><path class="cls-2" d="M509.8,61.91v57.18c0,2.68.55,4.55,1.66,5.61,1.11,1.06,2.59,1.59,4.46,1.59s3.35-.53,4.46-1.59c1.11-1.06,1.66-2.93,1.66-5.61v-57.18h11.17v56.44c0,6-1.49,10.61-4.46,13.82-2.97,3.21-7.35,4.82-13.15,4.82s-10.18-1.61-13.15-4.82c-2.97-3.21-4.46-7.82-4.46-13.82v-56.44h11.81Z"></path><path class="cls-2" d="M551.78,82.35v53.69h-10.63V61.91h14.82l12.13,44.37v-44.37h10.52v74.12h-12.13l-14.71-53.69Z"></path><path class="cls-2" d="M476.2,159.81c6.15,0,10.61,1.41,13.37,4.24,2.75,2.82,4.13,7.09,4.13,12.81v2.65c0,3.81-.61,6.95-1.83,9.42-1.22,2.47-3.15,4.31-5.8,5.51,3.22,1.2,5.49,3.16,6.82,5.88,1.32,2.72,1.99,6.05,1.99,10.01v6.04c0,5.72-1.5,10.08-4.51,13.08-3.01,3-7.48,4.5-13.42,4.5h-18.57v-74.12h17.82ZM470.19,170.4v19.59h4.62c2.22,0,3.96-.56,5.21-1.69,1.25-1.13,1.88-3.18,1.88-6.14v-4.13c0-2.68-.48-4.62-1.45-5.82-.97-1.2-2.49-1.8-4.56-1.8h-5.69ZM470.19,200.58v22.77h6.76c2,0,3.52-.53,4.56-1.59,1.04-1.06,1.56-2.96,1.56-5.72v-6.46c0-3.46-.59-5.82-1.77-7.09s-3.13-1.91-5.85-1.91h-5.26Z"></path><path class="cls-2" d="M526.66,233.94c-.14-.49-.29-.95-.43-1.38-.14-.42-.27-.95-.38-1.59-.11-.64-.18-1.45-.21-2.44-.04-.99-.05-2.22-.05-3.71v-11.65c0-3.46-.61-5.89-1.82-7.31-1.22-1.41-3.19-2.12-5.91-2.12h-4.08v30.18h-11.81v-74.12h17.82c6.15,0,10.61,1.41,13.37,4.24,2.75,2.82,4.13,7.09,4.13,12.81v5.82c0,7.62-2.58,12.64-7.73,15.04,3.01,1.2,5.06,3.16,6.17,5.88,1.11,2.72,1.66,6.02,1.66,9.9v11.44c0,1.84.07,3.44.21,4.82.14,1.38.5,2.77,1.07,4.18h-12.02ZM513.78,170.4v22.77h4.62c2.22,0,3.96-.56,5.21-1.69,1.25-1.13,1.88-3.18,1.88-6.14v-7.31c0-2.68-.48-4.62-1.45-5.82-.97-1.2-2.49-1.8-4.56-1.8h-5.69Z"></path><path class="cls-2" d="M544.16,177.6c0-6,1.54-10.61,4.62-13.82,3.08-3.21,7.51-4.82,13.31-4.82s10.23,1.61,13.31,4.82c3.08,3.21,4.62,7.82,4.62,13.82v38.54c0,6-1.54,10.61-4.62,13.82-3.08,3.21-7.52,4.82-13.31,4.82s-10.24-1.6-13.31-4.82c-3.08-3.21-4.62-7.82-4.62-13.82v-38.54ZM555.97,216.89c0,2.68.55,4.57,1.66,5.67,1.11,1.1,2.59,1.64,4.46,1.64s3.34-.55,4.46-1.64c1.11-1.09,1.66-2.98,1.66-5.67v-40.03c0-2.68-.55-4.57-1.66-5.67-1.11-1.09-2.6-1.64-4.46-1.64s-3.35.55-4.46,1.64c-1.11,1.1-1.66,2.98-1.66,5.67v40.03Z"></path><path class="cls-2" d="M584.2,159.81h36.5v10.59h-12.35v63.54h-11.81v-63.54h-12.35v-10.59Z"></path><path class="cls-2" d="M637.67,233.94h-11.81v-74.12h11.81v31.77h13.42v-31.77h12.03v74.12h-12.03v-31.77h-13.42v31.77Z"></path><path class="cls-2" d="M683.51,191.05h16.21v10.59h-16.21v21.71h20.4v10.59h-32.21v-74.12h32.21v10.59h-20.4v20.65Z"></path><path class="cls-2" d="M735.9,233.94c-.14-.49-.29-.95-.43-1.38-.14-.42-.27-.95-.38-1.59-.11-.64-.18-1.45-.21-2.44-.04-.99-.05-2.22-.05-3.71v-11.65c0-3.46-.61-5.89-1.83-7.31-1.22-1.41-3.19-2.12-5.9-2.12h-4.08v30.18h-11.81v-74.12h17.82c6.16,0,10.61,1.41,13.37,4.24,2.75,2.82,4.13,7.09,4.13,12.81v5.82c0,7.62-2.58,12.64-7.73,15.04,3.01,1.2,5.06,3.16,6.17,5.88,1.11,2.72,1.66,6.02,1.66,9.9v11.44c0,1.84.07,3.44.21,4.82.14,1.38.5,2.77,1.07,4.18h-12.03ZM723.02,170.4v22.77h4.62c2.22,0,3.95-.56,5.21-1.69,1.25-1.13,1.88-3.18,1.88-6.14v-7.31c0-2.68-.48-4.62-1.45-5.82-.97-1.2-2.49-1.8-4.56-1.8h-5.69Z"></path><path class="cls-2" d="M752.87,177.6c0-6,1.45-10.61,4.35-13.82,2.9-3.21,7.25-4.82,13.04-4.82s10.15,1.61,13.04,4.82c2.9,3.21,4.35,7.82,4.35,13.82v2.33h-11.17v-3.07c0-2.68-.52-4.57-1.56-5.67-1.04-1.09-2.49-1.64-4.35-1.64s-3.31.55-4.35,1.64c-1.04,1.1-1.56,2.98-1.56,5.67,0,2.54.57,4.78,1.72,6.72,1.14,1.94,2.58,3.78,4.29,5.51,1.72,1.73,3.56,3.46,5.53,5.19,1.97,1.73,3.81,3.62,5.53,5.67,1.72,2.05,3.15,4.38,4.29,6.99,1.14,2.61,1.72,5.68,1.72,9.21,0,6-1.49,10.61-4.46,13.82-2.97,3.21-7.35,4.82-13.15,4.82s-10.18-1.6-13.15-4.82c-2.97-3.21-4.46-7.82-4.46-13.82v-4.55h11.17v5.29c0,2.68.55,4.55,1.66,5.61,1.11,1.06,2.59,1.59,4.46,1.59s3.35-.53,4.46-1.59,1.67-2.93,1.67-5.61c0-2.54-.57-4.78-1.72-6.72-1.15-1.94-2.58-3.78-4.29-5.51-1.72-1.73-3.56-3.46-5.53-5.19-1.97-1.73-3.81-3.62-5.53-5.67-1.72-2.05-3.15-4.38-4.29-6.99-1.15-2.61-1.72-5.68-1.72-9.21Z"></path><path class="cls-1" d="M475.77,257.71c5.94,0,10.36,1.55,13.26,4.66,2.9,3.11,4.35,7.66,4.35,13.66v9.64c0,6-1.45,10.55-4.35,13.66-2.9,3.11-7.32,4.66-13.26,4.66h-5.58v27.85h-11.81v-74.12h17.39ZM470.19,268.3v25.1h5.58c1.86,0,3.29-.49,4.29-1.48,1-.99,1.5-2.82,1.5-5.51v-11.12c0-2.68-.5-4.52-1.5-5.51-1-.99-2.43-1.48-4.29-1.48h-5.58Z"></path><path class="cls-1" d="M499.39,257.71h11.81v74.12h-11.81v-74.12ZM510.45,243.63v10.17h-10.31v-10.17h10.31Z"></path><path class="cls-1" d="M552.53,257.71v10.38l-22.44,53.16h22.44v10.59h-34.57v-10.38l22.44-53.16h-21.37v-10.59h33.5Z"></path><path class="cls-1" d="M592.25,257.71v10.38l-22.44,53.16h22.44v10.59h-34.57v-10.38l22.44-53.16h-21.37v-10.59h33.5Z"></path><path class="cls-1" d="M637.45,331.83h-11.92l-2.04-13.45h-14.49l-2.04,13.45h-10.84l12.02-74.12h17.29l12.02,74.12ZM610.51,308.33h11.38l-5.69-37.49-5.69,37.49Z"></path></g><path class="cls-2" d="M425.99,42.6c0,6.87-4.54,12.67-12.71,12.67s-12.71-5.8-12.71-12.67,4.58-12.67,12.71-12.67,12.71,5.76,12.71,12.67ZM413.28,53.71c6.97,0,10.95-4.93,10.95-11.11s-3.98-11.14-10.95-11.14-10.91,4.93-10.91,11.14,3.94,11.11,10.91,11.11ZM414.58,35.76h-5.98v13.29h1.65v-5h2.92l4.4,5h1.83v-.28l-4.22-4.72c5.35-.66,5.14-8.3-.6-8.3ZM410.25,37.36h4.33c3.8,0,3.73,5.24-.11,5.24h-4.22v-5.24Z"></path><line class="cls-3" x1="413.64" y1="84.14" x2="413.64" y2="332.65"></line></g></g></g></svg>