<svg xmlns="http://www.w3.org/2000/svg" xmlns:xlink="http://www.w3.org/1999/xlink" width="1920" zoomAndPan="magnify" viewBox="0 0 1440 809.999993" height="1080" preserveAspectRatio="xMidYMid meet" version="1.0"><defs><g/></defs><rect x="-144" width="1728" fill="#ffffff" y="-80.999999" height="971.999992" fill-opacity="1"/><rect x="-144" width="1728" fill="#000000" y="-80.999999" height="971.999992" fill-opacity="1"/><g fill="#ffffff" fill-opacity="1"><g transform="translate(676.142204, 517.499994)"><g><path d="M 2.03125 -222 L 9.90625 -222 L 53.84375 -117.609375 L 99.5625 -222 L 107.703125 -222 L 57.65625 -108.453125 L 103.125 0 L 95.5 0 L 53.59375 -99.5625 L 9.90625 0 L 2.03125 0 L 49.78125 -108.453125 Z M 2.03125 -222 "/></g></g></g><g fill="#ffffff" fill-opacity="1"><g transform="translate(390.452683, 596.62499)"><g><path d="M 1.609375 -32.8125 L 8.28125 -16.46875 L 14.96875 -32.8125 L 16.28125 -32.8125 L 16.28125 0 L 14.84375 0 L 14.84375 -28.765625 L 8.890625 -14.140625 L 7.6875 -14.140625 L 1.421875 -29.46875 L 1.421875 0 L 0 0 L 0 -32.8125 Z M 1.609375 -32.8125 "/></g></g></g><g fill="#ffffff" fill-opacity="1"><g transform="translate(439.540167, 596.62499)"><g><path d="M 12.859375 -32.8125 L 12.859375 -31.390625 L 1.421875 -31.390625 L 1.421875 -15.265625 L 10.015625 -15.265625 L 10.015625 -13.84375 L 1.421875 -13.84375 L 1.421875 -1.421875 L 12.859375 -1.421875 L 12.859375 0 L 0 0 L 0 -32.8125 Z M 12.859375 -32.8125 "/></g></g></g><g fill="#ffffff" fill-opacity="1"><g transform="translate(485.215149, 596.62499)"><g><path d="M 6.71875 -32.8125 C 7.84375 -32.8125 8.90625 -32.523438 9.90625 -31.953125 C 10.851562 -31.421875 11.640625 -30.644531 12.265625 -29.625 C 12.835938 -28.625 13.125 -27.5625 13.125 -26.4375 L 13.125 -6.375 C 13.125 -5.25 12.835938 -4.1875 12.265625 -3.1875 C 11.640625 -2.164062 10.851562 -1.390625 9.90625 -0.859375 C 8.90625 -0.285156 7.84375 0 6.71875 0 L 0 0 L 0 -32.8125 Z M 6.71875 -1.421875 C 7.613281 -1.421875 8.4375 -1.644531 9.1875 -2.09375 C 9.957031 -2.550781 10.570312 -3.15625 11.03125 -3.90625 C 11.476562 -4.65625 11.703125 -5.476562 11.703125 -6.375 L 11.703125 -26.4375 C 11.703125 -27.332031 11.476562 -28.15625 11.03125 -28.90625 C 10.570312 -29.65625 9.957031 -30.257812 9.1875 -30.71875 C 8.4375 -31.164062 7.613281 -31.390625 6.71875 -31.390625 L 1.421875 -31.390625 L 1.421875 -1.421875 Z M 6.71875 -1.421875 "/></g></g></g><g fill="#ffffff" fill-opacity="1"><g transform="translate(531.152635, 596.62499)"><g><path d="M 1.421875 -32.8125 L 1.421875 0 L 0 0 L 0 -32.8125 Z M 1.421875 -32.8125 "/></g></g></g><g fill="#ffffff" fill-opacity="1"><g transform="translate(565.390129, 596.62499)"><g><path d="M 6.453125 0.453125 C 5.296875 0.453125 4.207031 0.164062 3.1875 -0.40625 C 2.238281 -1.007812 1.460938 -1.785156 0.859375 -2.734375 C 0.285156 -3.660156 0 -4.722656 0 -5.921875 L 0 -26.8125 C 0 -27.9375 0.285156 -29 0.859375 -30 C 1.429688 -30.976562 2.207031 -31.753906 3.1875 -32.328125 C 4.207031 -32.898438 5.296875 -33.1875 6.453125 -33.1875 L 6.71875 -33.1875 C 7.84375 -33.1875 8.90625 -32.898438 9.90625 -32.328125 C 10.90625 -31.773438 11.691406 -31 12.265625 -30 C 12.835938 -29 13.125 -27.9375 13.125 -26.8125 L 13.125 -26.40625 L 11.703125 -26.40625 L 11.703125 -26.8125 C 11.703125 -27.707031 11.476562 -28.53125 11.03125 -29.28125 C 10.570312 -30.03125 9.957031 -30.632812 9.1875 -31.09375 C 8.4375 -31.539062 7.613281 -31.765625 6.71875 -31.765625 L 6.453125 -31.765625 C 5.546875 -31.765625 4.707031 -31.550781 3.9375 -31.125 C 3.164062 -30.675781 2.550781 -30.078125 2.09375 -29.328125 C 1.644531 -28.523438 1.421875 -27.6875 1.421875 -26.8125 L 1.421875 -5.921875 C 1.421875 -5.023438 1.644531 -4.203125 2.09375 -3.453125 C 2.550781 -2.648438 3.164062 -2.050781 3.9375 -1.65625 C 4.6875 -1.195312 5.523438 -0.96875 6.453125 -0.96875 L 6.71875 -0.96875 C 7.613281 -0.96875 8.4375 -1.195312 9.1875 -1.65625 C 9.957031 -2.101562 10.570312 -2.703125 11.03125 -3.453125 C 11.476562 -4.203125 11.703125 -5.023438 11.703125 -5.921875 L 11.703125 -6.34375 L 13.125 -6.34375 L 13.125 -5.921875 C 13.125 -4.722656 12.835938 -3.660156 12.265625 -2.734375 C 11.660156 -1.765625 10.875 -0.988281 9.90625 -0.40625 C 8.90625 0.164062 7.84375 0.453125 6.71875 0.453125 Z M 6.453125 0.453125 "/></g></g></g><g fill="#ffffff" fill-opacity="1"><g transform="translate(611.327626, 596.62499)"><g><path d="M 8.21875 -32.8125 L 15.15625 0 L 13.6875 0 L 11.59375 -9.90625 L 3.5625 -9.90625 L 1.46875 0 L 0 0 L 6.9375 -32.8125 Z M 7.578125 -28.953125 L 3.859375 -11.328125 L 11.28125 -11.328125 Z M 7.578125 -28.953125 "/></g></g></g><g fill="#ffffff" fill-opacity="1"><g transform="translate(659.290111, 596.62499)"><g><path d="M 1.421875 -32.8125 L 1.421875 -1.421875 L 13.5 -1.421875 L 13.5 0 L 0 0 L 0 -32.8125 Z M 1.421875 -32.8125 "/></g></g></g><g fill="#ffffff" fill-opacity="1"><g transform="translate(705.602585, 596.62499)"><g/></g></g><g fill="#ffffff" fill-opacity="1"><g transform="translate(746.927565, 596.62499)"><g><path d="M 6.78125 0.453125 C 5.5625 0.453125 4.4375 0.164062 3.40625 -0.40625 C 2.457031 -0.90625 1.632812 -1.695312 0.9375 -2.78125 C 0.3125 -3.726562 0 -4.800781 0 -6 L 0 -32.78125 L 1.421875 -32.78125 L 1.421875 -6 C 1.421875 -5.101562 1.660156 -4.265625 2.140625 -3.484375 C 2.609375 -2.710938 3.257812 -2.101562 4.09375 -1.65625 C 4.914062 -1.195312 5.8125 -0.96875 6.78125 -0.96875 L 7.09375 -0.96875 C 8.0625 -0.96875 8.957031 -1.195312 9.78125 -1.65625 C 10.613281 -2.101562 11.265625 -2.710938 11.734375 -3.484375 C 12.210938 -4.265625 12.453125 -5.101562 12.453125 -6 L 12.453125 -32.78125 L 13.875 -32.78125 L 13.875 -6 C 13.875 -4.820312 13.570312 -3.75 12.96875 -2.78125 C 12.320312 -1.78125 11.5 -0.988281 10.5 -0.40625 C 9.425781 0.164062 8.289062 0.453125 7.09375 0.453125 Z M 6.78125 0.453125 "/></g></g></g><g fill="#ffffff" fill-opacity="1"><g transform="translate(793.615062, 596.62499)"><g><path d="M 1.609375 -32.8125 L 1.71875 -32.546875 L 12.375 -4.3125 L 12.375 -32.8125 L 13.84375 -32.8125 L 13.84375 0 L 12.484375 0 L 12.40625 -0.265625 L 1.421875 -29.25 L 1.421875 0 L 0 0 L 0 -32.8125 Z M 1.609375 -32.8125 "/></g></g></g><g fill="#ffffff" fill-opacity="1"><g transform="translate(840.265069, 596.62499)"><g><path d="M 1.421875 -32.8125 L 1.421875 0 L 0 0 L 0 -32.8125 Z M 1.421875 -32.8125 "/></g></g></g><g fill="#ffffff" fill-opacity="1"><g transform="translate(874.502585, 596.62499)"><g><path d="M 12.859375 -32.8125 L 12.859375 -31.390625 L 1.421875 -31.390625 L 1.421875 -15.265625 L 10.015625 -15.265625 L 10.015625 -13.84375 L 1.421875 -13.84375 L 1.421875 0 L 0 0 L 0 -32.8125 Z M 12.859375 -32.8125 "/></g></g></g><g fill="#ffffff" fill-opacity="1"><g transform="translate(920.177555, 596.62499)"><g><path d="M 6.78125 0.453125 C 5.613281 0.453125 4.488281 0.164062 3.40625 -0.40625 C 2.4375 -0.9375 1.613281 -1.710938 0.9375 -2.734375 C 0.3125 -3.679688 0 -4.769531 0 -6 L 0 -26.734375 C 0 -27.859375 0.3125 -28.9375 0.9375 -29.96875 C 1.539062 -30.9375 2.363281 -31.722656 3.40625 -32.328125 C 4.4375 -32.898438 5.5625 -33.1875 6.78125 -33.1875 L 7.09375 -33.1875 C 8.382812 -33.1875 9.519531 -32.898438 10.5 -32.328125 C 11.570312 -31.703125 12.394531 -30.914062 12.96875 -29.96875 C 13.570312 -28.988281 13.875 -27.910156 13.875 -26.734375 L 13.875 -6 C 13.875 -4.75 13.570312 -3.660156 12.96875 -2.734375 C 12.320312 -1.734375 11.5 -0.957031 10.5 -0.40625 C 9.5 0.164062 8.363281 0.453125 7.09375 0.453125 Z M 7.09375 -0.96875 C 8.0625 -0.96875 8.957031 -1.195312 9.78125 -1.65625 C 10.5625 -2.070312 11.210938 -2.679688 11.734375 -3.484375 C 12.210938 -4.210938 12.453125 -5.050781 12.453125 -6 L 12.453125 -26.734375 C 12.453125 -27.640625 12.210938 -28.476562 11.734375 -29.25 C 11.285156 -30.019531 10.632812 -30.632812 9.78125 -31.09375 C 8.957031 -31.539062 8.0625 -31.765625 7.09375 -31.765625 L 6.78125 -31.765625 C 5.8125 -31.765625 4.914062 -31.539062 4.09375 -31.09375 C 3.21875 -30.613281 2.566406 -30 2.140625 -29.25 C 1.660156 -28.425781 1.421875 -27.585938 1.421875 -26.734375 L 1.421875 -6 C 1.421875 -5.125 1.660156 -4.285156 2.140625 -3.484375 C 2.609375 -2.710938 3.257812 -2.101562 4.09375 -1.65625 C 4.914062 -1.195312 5.8125 -0.96875 6.78125 -0.96875 Z M 7.09375 -0.96875 "/></g></g></g><g fill="#ffffff" fill-opacity="1"><g transform="translate(966.865053, 596.62499)"><g><path d="M 7.53125 -32.8125 C 8.6875 -32.8125 9.773438 -32.445312 10.796875 -31.71875 C 11.773438 -31 12.550781 -30.039062 13.125 -28.84375 C 13.695312 -27.5625 13.984375 -26.195312 13.984375 -24.75 L 13.984375 -24.375 C 13.984375 -22.925781 13.695312 -21.550781 13.125 -20.25 C 12.550781 -19 11.773438 -18 10.796875 -17.25 C 9.773438 -16.519531 8.6875 -16.15625 7.53125 -16.15625 L 5.96875 -16.15625 L 14.171875 0 L 12.5625 0 L 4.390625 -16.15625 L 1.421875 -16.15625 L 1.421875 0 L 0 0 L 0 -32.8125 Z M 7.53125 -17.59375 C 8.40625 -17.59375 9.242188 -17.890625 10.046875 -18.484375 C 10.828125 -19.109375 11.441406 -19.9375 11.890625 -20.96875 C 12.335938 -22.007812 12.5625 -23.144531 12.5625 -24.375 L 12.5625 -24.75 C 12.5625 -25.945312 12.335938 -27.0625 11.890625 -28.09375 C 11.410156 -29.132812 10.8125 -29.929688 10.09375 -30.484375 C 9.3125 -31.085938 8.457031 -31.390625 7.53125 -31.390625 L 1.421875 -31.390625 L 1.421875 -17.59375 Z M 7.53125 -17.59375 "/></g></g></g><g fill="#ffffff" fill-opacity="1"><g transform="translate(1013.852523, 596.62499)"><g><path d="M 1.609375 -32.8125 L 8.28125 -16.46875 L 14.96875 -32.8125 L 16.28125 -32.8125 L 16.28125 0 L 14.84375 0 L 14.84375 -28.765625 L 8.890625 -14.140625 L 7.6875 -14.140625 L 1.421875 -29.46875 L 1.421875 0 L 0 0 L 0 -32.8125 Z M 1.609375 -32.8125 "/></g></g></g><g fill="#ffffff" fill-opacity="1"><g transform="translate(1062.939984, 596.62499)"><g><path d="M 6.90625 0.375 C 5.75 0.375 4.671875 0.0859375 3.671875 -0.484375 C 2.671875 -1.054688 1.882812 -1.84375 1.3125 -2.84375 C 0.738281 -3.84375 0.453125 -4.921875 0.453125 -6.078125 L 0.453125 -6.453125 L 1.875 -6.453125 L 1.875 -6.078125 C 1.875 -5.171875 2.097656 -4.332031 2.546875 -3.5625 C 2.992188 -2.789062 3.609375 -2.175781 4.390625 -1.71875 C 5.160156 -1.269531 6 -1.046875 6.90625 -1.046875 L 7.15625 -1.046875 C 8.0625 -1.046875 8.953125 -1.285156 9.828125 -1.765625 C 11.703125 -2.785156 12.640625 -4.457031 12.640625 -6.78125 C 12.640625 -8.257812 12.238281 -9.835938 11.4375 -11.515625 C 10.613281 -13.234375 9.015625 -14.832031 6.640625 -16.3125 C 4.066406 -17.914062 2.316406 -19.59375 1.390625 -21.34375 C 0.460938 -23.09375 0 -24.664062 0 -26.0625 C 0 -27.664062 0.335938 -28.988281 1.015625 -30.03125 C 1.691406 -31.0625 2.539062 -31.851562 3.5625 -32.40625 C 4.632812 -32.976562 5.75 -33.265625 6.90625 -33.265625 L 7.15625 -33.265625 C 8.3125 -33.265625 9.398438 -32.976562 10.421875 -32.40625 C 11.398438 -31.820312 12.175781 -31.046875 12.75 -30.078125 C 13.320312 -29.046875 13.609375 -27.957031 13.609375 -26.8125 L 13.609375 -26.40625 L 12.1875 -26.40625 L 12.1875 -26.8125 C 12.1875 -27.6875 11.960938 -28.523438 11.515625 -29.328125 C 11.066406 -30.097656 10.453125 -30.707031 9.671875 -31.15625 C 8.898438 -31.613281 8.0625 -31.84375 7.15625 -31.84375 L 6.90625 -31.84375 C 5.875 -31.84375 4.984375 -31.613281 4.234375 -31.15625 C 3.359375 -30.632812 2.695312 -30.007812 2.25 -29.28125 C 1.695312 -28.4375 1.421875 -27.375 1.421875 -26.09375 C 1.421875 -24.945312 1.832031 -23.597656 2.65625 -22.046875 C 3.507812 -20.472656 5.097656 -18.960938 7.421875 -17.515625 C 9.023438 -16.515625 10.300781 -15.398438 11.25 -14.171875 C 12.300781 -12.828125 13.0625 -11.453125 13.53125 -10.046875 C 13.882812 -8.992188 14.0625 -7.929688 14.0625 -6.859375 C 14.0625 -3.960938 12.882812 -1.851562 10.53125 -0.53125 C 9.488281 0.0703125 8.363281 0.375 7.15625 0.375 Z M 6.90625 0.375 "/></g></g></g><g fill="#ffffff" fill-opacity="1"><g transform="translate(600.744648, 481.499996)"><g><path d="M 31.578125 2.0625 C 26.285156 2.0625 21.164062 0.742188 16.21875 -1.890625 C 11.957031 -4.191406 8.21875 -7.644531 5 -12.25 C 2.238281 -16.738281 0.859375 -21.679688 0.859375 -27.078125 L 0.859375 -123.34375 C 0.859375 -128.289062 2.296875 -133.125 5.171875 -137.84375 C 7.703125 -142.320312 11.382812 -145.882812 16.21875 -148.53125 C 20.9375 -151.175781 26.054688 -152.5 31.578125 -152.5 L 32.953125 -152.5 C 38.816406 -152.5 43.929688 -151.175781 48.296875 -148.53125 C 53.128906 -145.769531 56.867188 -142.207031 59.515625 -137.84375 C 62.273438 -133.582031 63.65625 -128.75 63.65625 -123.34375 L 63.65625 -27.078125 C 63.65625 -21.441406 62.273438 -16.5 59.515625 -12.25 C 56.410156 -7.644531 52.671875 -4.132812 48.296875 -1.71875 C 43.929688 0.800781 38.816406 2.0625 32.953125 2.0625 Z M 32.953125 -2.765625 C 37.429688 -2.765625 41.742188 -3.851562 45.890625 -6.03125 C 49.679688 -8.101562 52.785156 -11.039062 55.203125 -14.84375 C 57.503906 -18.40625 58.65625 -22.484375 58.65625 -27.078125 L 58.65625 -123.34375 C 58.65625 -127.945312 57.503906 -131.972656 55.203125 -135.421875 C 53.128906 -139.097656 50.023438 -142.085938 45.890625 -144.390625 C 41.984375 -146.460938 37.671875 -147.5 32.953125 -147.5 L 31.578125 -147.5 C 26.742188 -147.5 22.425781 -146.460938 18.625 -144.390625 C 14.375 -141.972656 11.210938 -138.984375 9.140625 -135.421875 C 6.835938 -131.398438 5.6875 -127.375 5.6875 -123.34375 L 5.6875 -27.078125 C 5.6875 -22.828125 6.835938 -18.75 9.140625 -14.84375 C 11.554688 -11.15625 14.71875 -8.21875 18.625 -6.03125 C 22.65625 -3.851562 26.972656 -2.765625 31.578125 -2.765625 Z M 32.953125 -2.765625 "/></g></g></g><g fill="#ffffff" fill-opacity="1"><g transform="translate(800.08847, 481.499996)"><g><path d="M 58.828125 -150.78125 L 58.828125 -145.78125 L 5.6875 -145.78125 L 5.6875 -69.171875 L 45.71875 -69.171875 L 45.71875 -64.34375 L 5.6875 -64.34375 L 5.6875 -4.828125 L 58.828125 -4.828125 L 58.828125 0 L 0.859375 0 L 0.859375 -150.78125 Z M 58.828125 -150.78125 "/></g></g></g></svg>